<?xml version="1.0" encoding="iso-8859-1"?>
<!-- Generator: Adobe Illustrator 19.0.0, SVG Export Plug-In . SVG Version: 6.00 Build 0)  -->
<svg version="1.1" id="Capa_1" xmlns="http://www.w3.org/2000/svg" xmlns:xlink="http://www.w3.org/1999/xlink" x="0px" y="0px"
	 viewBox="0 0 512 512" style="enable-background:new 0 0 512 512;" xml:space="preserve">
<circle style="fill:#4DBAF6;" cx="477.997" cy="34.009" r="23.999"/>
<circle style="fill:#FF5D5D;" cx="33.998" cy="477.987" r="23.999"/>
<path style="fill:#EDF2FA;" d="M502,256.002c0,2.899-110.148,154.92-245.988,154.92S10.025,257.93,10.025,256.002
	c0-2.896,110.148-154.92,245.988-154.92S502,254.074,502,256.002z"/>
<circle style="fill:#4DBAF6;" cx="256.007" cy="255.998" r="123.444"/>
<circle style="fill:#FF5D5D;" cx="256.007" cy="255.998" r="55.997"/>
<path d="M490.28,224.499c-11.406-13.39-29.998-33.67-53.792-54.243c-37.852-32.727-94.955-71.149-160.009-78.075l48.17-48.17h55.918
	c5.523,0,10-4.477,10-10s-4.477-10-10-10h-60.06c-2.652,0-5.196,1.054-7.071,2.929l-64.268,64.265
	c-70.777,2.537-133.206,43.847-173.618,78.675c-23.957,20.648-42.488,40.882-53.814,54.22c-7.038,8.288-11.907,14.618-14.754,18.469
	c-5.851,7.917-6.957,10.051-6.957,13.431c0,3.548,1.236,5.531,7,13.211c2.902,3.868,7.812,10.181,14.721,18.292
	c11.406,13.391,29.998,33.671,53.792,54.243c37.847,32.723,94.94,71.14,159.984,78.072l-48.17,48.171H66.494
	c-4.281-13.882-17.228-23.999-32.495-23.999C15.251,443.992,0,459.243,0,477.99s15.251,33.998,33.998,33.998
	c15.268,0,28.216-10.117,32.495-23.999h125.001c2.652,0,5.196-1.054,7.071-2.929l64.263-64.263
	c70.789-2.527,133.23-43.842,173.647-78.675c23.958-20.648,42.488-40.883,53.814-54.22c7.038-8.288,11.908-14.618,14.754-18.47
	C510.895,261.516,512,259.382,512,256c0-3.548-1.236-5.531-7-13.211C502.099,238.923,497.19,232.61,490.28,224.499z M33.998,491.99
	c-7.72,0-13.999-6.28-13.999-13.999c0-7.72,6.28-13.999,13.999-13.999s13.999,6.28,13.999,13.999
	C47.998,485.711,41.718,491.99,33.998,491.99z M419.568,330.256c-38.282,32.237-97.733,70.667-163.555,70.667
	c-65.84,0-125.449-38.762-163.86-71.278c-36.075-30.541-61.405-61.937-70.134-73.757c8.447-11.627,33.62-43.132,70.44-74.138
	c38.283-32.238,97.734-70.668,163.555-70.668c65.84,0,125.449,38.761,163.86,71.279c36.076,30.54,61.407,61.936,70.135,73.757
	C481.561,267.743,456.39,299.248,419.568,330.256z"/>
<path d="M161.638,161.556c-20.718,20.718-33.798,46.97-37.826,75.915c-3.896,27.994,1.306,57.044,14.645,81.8
	c2.619,4.861,8.684,6.68,13.546,4.061c4.862-2.62,6.68-8.686,4.06-13.546c-23.58-43.762-15.471-98.9,19.717-134.088
	c44.26-44.261,116.277-44.261,160.538-0.001c44.261,44.261,44.261,116.278,0,160.539c-35.19,35.189-90.331,43.298-134.09,19.715
	c-4.86-2.617-10.926-0.802-13.546,4.06c-2.62,4.862-0.802,10.927,4.06,13.547c19.395,10.451,41.426,15.906,63.52,15.906
	c6.107,0,12.22-0.417,18.282-1.26c28.947-4.028,55.198-17.108,75.916-37.826c52.058-52.059,52.058-136.764,0-188.823
	C298.4,109.497,213.697,109.497,161.638,161.556z"/>
<path d="M161.643,336.224l-0.08,0.08c-3.905,3.905-3.905,10.237,0,14.142c1.953,1.952,4.512,2.929,7.071,2.929
	s5.119-0.977,7.071-2.929l0.08-0.08c3.905-3.905,3.905-10.237,0-14.142C171.881,332.32,165.549,332.32,161.643,336.224z"/>
<path d="M256.012,210.004c5.523,0,10-4.477,10-10s-4.477-10-10-10c-36.391,0-65.997,29.606-65.997,65.997
	s29.606,65.997,65.997,65.997s65.997-29.606,65.997-65.997c0-5.523-4.477-10-10-10s-10,4.477-10,10
	c0,25.363-20.635,45.998-45.998,45.998s-45.998-20.635-45.998-45.998S230.65,210.004,256.012,210.004z"/>
<path d="M417.005,44.012c2.63,0,5.21-1.07,7.07-2.93c1.86-1.86,2.93-4.44,2.93-7.07s-1.07-5.21-2.93-7.07
	c-1.86-1.87-4.44-2.93-7.07-2.93s-5.21,1.06-7.07,2.93c-1.86,1.86-2.93,4.44-2.93,7.07s1.07,5.21,2.93,7.07
	C411.795,42.942,414.375,44.012,417.005,44.012z"/>
<path d="M478.002,68.008C496.749,68.008,512,52.757,512,34.01S496.749,0.012,478.002,0.012s-33.998,15.251-33.998,33.998
	S459.256,68.008,478.002,68.008z M478.002,20.011c7.72,0,13.999,6.28,13.999,13.999s-6.28,13.999-13.999,13.999
	c-7.72,0-13.999-6.28-13.999-13.999S470.283,20.011,478.002,20.011z"/>
<path d="M10.025,93.504h72.996c5.523,0,10-4.477,10-10s-4.477-10-10-10H10.025c-5.523,0-10,4.477-10,10S4.502,93.504,10.025,93.504z
	"/>
<path d="M10.025,45.506h72.996c5.523,0,10-4.477,10-10s-4.477-10-10-10H10.025c-5.523,0-10,4.477-10,10S4.502,45.506,10.025,45.506z
	"/>
<path d="M124.019,45.506h59.403c5.523,0,10-4.477,10-10s-4.477-10-10-10h-59.403c-5.523,0-10,4.477-10,10
	S118.496,45.506,124.019,45.506z"/>
<path d="M502,418.5h-71.663c-5.523,0-10,4.478-10,10c0,5.522,4.477,10,10,10H502c5.523,0,10-4.478,10-10
	C512,422.978,507.523,418.5,502,418.5z"/>
<path d="M297.01,466.498H268.09c-5.523,0-10,4.478-10,10c0,5.522,4.477,10,10,10h28.921c5.523,0,10-4.478,10-10
	C307.01,470.975,302.533,466.498,297.01,466.498z"/>
<path d="M389.006,466.498h-49.998c-5.523,0-10,4.478-10,10c0,5.522,4.477,10,10,10h49.998c5.523,0,10-4.478,10-10
	C399.005,470.975,394.529,466.498,389.006,466.498z"/>
<path d="M502,466.498h-71.663c-5.523,0-10,4.478-10,10c0,5.522,4.477,10,10,10H502c5.523,0,10-4.478,10-10
	C512,470.975,507.523,466.498,502,466.498z"/>
<path d="M10,421.991h105.075c5.523,0,10-4.478,10-10s-4.477-10-10-10H10c-5.523,0-10,4.478-10,10S4.477,421.991,10,421.991z"/>
<path d="M10,381.993h54.022c5.523,0,10-4.478,10-10s-4.477-10-10-10H10c-5.523,0-10,4.478-10,10S4.477,381.993,10,381.993z"/>
<g>
</g>
<g>
</g>
<g>
</g>
<g>
</g>
<g>
</g>
<g>
</g>
<g>
</g>
<g>
</g>
<g>
</g>
<g>
</g>
<g>
</g>
<g>
</g>
<g>
</g>
<g>
</g>
<g>
</g>
</svg>
